<svg xmlns="http://www.w3.org/2000/svg" version="1.1" xmlns:xlink="http://www.w3.org/1999/xlink" xmlns:svgjs="http://svgjs.dev/svgjs" width="1000" height="85" viewBox="0 0 1000 85"><g transform="matrix(1,0,0,1,-0.6060606060606233,0.19045190368878195)"><svg viewBox="0 0 396 34" data-background-color="#000000" preserveAspectRatio="xMidYMid meet" height="85" width="1000" xmlns="http://www.w3.org/2000/svg" xmlns:xlink="http://www.w3.org/1999/xlink"><defs></defs><g id="tight-bounds" transform="matrix(1,0,0,1,0.2400000000000091,-0.07618076147551278)"><svg viewBox="0 0 395.52 34.15236152295101" height="34.15236152295101" width="395.52"><g><svg viewBox="0 0 395.52 34.15236152295101" height="34.15236152295101" width="395.52"><g><svg viewBox="0 0 395.52 34.15236152295101" height="34.15236152295101" width="395.52"><g><svg viewBox="0 0 395.52 34.15236152295101" height="34.15236152295101" width="395.52"><g><svg viewBox="0 0 395.52 34.15236152295101" height="34.15236152295101" width="395.52"><g transform="matrix(1,0,0,1,0,0)"><svg width="395.52" viewBox="3.049999952316284 -35.70000076293945 419.4200134277344 36.400001525878906" height="34.15236152295101" data-palette-color="#5a5a5a"><g class="undefined-text-0" data-fill-palette-color="primary" id="text-0"><path d="M25.85-28.8L25.85-10.5Q25.85-5.05 22.9-2.18 19.95 0.7 14.8 0.7L14.8 0.7Q12.15 0.7 10-0.03 7.85-0.75 6.3-2.18 4.75-3.6 3.9-5.68 3.05-7.75 3.05-10.5L3.05-10.5 3.05-13.8 9.65-13.8 9.65-10.5Q9.65-8.15 10.95-6.83 12.25-5.5 14.6-5.5L14.6-5.5Q16.8-5.5 18.03-6.8 19.25-8.1 19.25-10.5L19.25-10.5 19.25-28.8 15.65-28.8 15.65-35 28.85-35 28.85-28.8 25.85-28.8ZM33-13.6L33-21.4Q33-28.2 36.42-31.95 39.85-35.7 45.9-35.7L45.9-35.7Q51.95-35.7 55.37-31.95 58.8-28.2 58.8-21.4L58.8-21.4 58.8-13.6Q58.8-6.6 55.37-2.95 51.95 0.7 45.9 0.7L45.9 0.7Q39.85 0.7 36.42-2.95 33-6.6 33-13.6L33-13.6ZM45.9-5.3L45.9-5.3Q47.7-5.3 48.9-5.88 50.1-6.45 50.85-7.5 51.6-8.55 51.9-10 52.2-11.45 52.2-13.2L52.2-13.2 52.2-21.8Q52.2-23.45 51.85-24.9 51.5-26.35 50.75-27.4 50-28.45 48.8-29.08 47.6-29.7 45.9-29.7L45.9-29.7Q44.2-29.7 43-29.08 41.8-28.45 41.05-27.4 40.3-26.35 39.95-24.9 39.6-23.45 39.6-21.8L39.6-21.8 39.6-13.2Q39.6-11.45 39.9-10 40.2-8.55 40.95-7.5 41.7-6.45 42.9-5.88 44.1-5.3 45.9-5.3ZM64.25 0L64.25-35 70.85-35 70.85-20.7 82.15-20.7 82.15-35 88.75-35 88.75 0 82.15 0 82.15-14.4 70.85-14.4 70.85 0 64.25 0ZM107.74-35L111.84-3.3 112.74-3.3 112.74-35 119.34-35 119.34 0 106.44 0 102.34-31.7 101.44-31.7 101.44 0 94.84 0 94.84-35 107.74-35ZM143.69-23.1L143.69-24.3Q143.69-26.4 142.07-27.95 140.44-29.5 137.49-29.5L137.49-29.5Q134.99-29.5 133.54-28.48 132.09-27.45 132.09-25.7L132.09-25.7Q132.09-24.8 132.44-24.08 132.79-23.35 133.67-22.78 134.54-22.2 135.97-21.75 137.39-21.3 139.59-20.9L139.59-20.9Q145.09-19.9 147.99-17.55 150.89-15.2 150.89-10.6L150.89-10.6 150.89-10Q150.89-7.55 150.02-5.58 149.14-3.6 147.49-2.2 145.84-0.8 143.49-0.05 141.14 0.7 138.19 0.7L138.19 0.7Q134.74 0.7 132.12-0.28 129.49-1.25 127.74-2.98 125.99-4.7 125.09-7.03 124.19-9.35 124.19-12.1L124.19-12.1 124.19-13.6 130.79-13.6 130.79-12.4Q130.79-9.25 132.62-7.38 134.44-5.5 138.29-5.5L138.29-5.5Q141.29-5.5 142.74-6.8 144.19-8.1 144.19-9.9L144.19-9.9Q144.19-10.75 143.89-11.53 143.59-12.3 142.84-12.93 142.09-13.55 140.79-14.05 139.49-14.55 137.49-14.9L137.49-14.9Q134.84-15.35 132.64-16.07 130.44-16.8 128.82-18 127.19-19.2 126.29-21 125.39-22.8 125.39-25.4L125.39-25.4 125.39-25.7Q125.39-27.85 126.27-29.68 127.14-31.5 128.72-32.85 130.29-34.2 132.52-34.95 134.74-35.7 137.49-35.7L137.49-35.7Q140.59-35.7 142.99-34.83 145.39-33.95 147.02-32.45 148.64-30.95 149.47-29 150.29-27.05 150.29-24.9L150.29-24.9 150.29-23.1 143.69-23.1ZM155.39-13.6L155.39-21.4Q155.39-28.2 158.81-31.95 162.24-35.7 168.29-35.7L168.29-35.7Q174.34-35.7 177.76-31.95 181.19-28.2 181.19-21.4L181.19-21.4 181.19-13.6Q181.19-6.6 177.76-2.95 174.34 0.7 168.29 0.7L168.29 0.7Q162.24 0.7 158.81-2.95 155.39-6.6 155.39-13.6L155.39-13.6ZM168.29-5.3L168.29-5.3Q170.09-5.3 171.29-5.88 172.49-6.45 173.24-7.5 173.99-8.55 174.29-10 174.59-11.45 174.59-13.2L174.59-13.2 174.59-21.8Q174.59-23.45 174.24-24.9 173.89-26.35 173.14-27.4 172.39-28.45 171.19-29.08 169.99-29.7 168.29-29.7L168.29-29.7Q166.59-29.7 165.39-29.08 164.19-28.45 163.44-27.4 162.69-26.35 162.34-24.9 161.99-23.45 161.99-21.8L161.99-21.8 161.99-13.2Q161.99-11.45 162.29-10 162.59-8.55 163.34-7.5 164.09-6.45 165.29-5.88 166.49-5.3 168.29-5.3ZM199.53-35L203.64-3.3 204.54-3.3 204.54-35 211.14-35 211.14 0 198.24 0 194.14-31.7 193.24-31.7 193.24 0 186.64 0 186.64-35 199.53-35ZM227.53-20.4L227.53-26.65Q226.28-27.2 225.51-28.38 224.73-29.55 224.73-31L224.73-31Q224.73-31.95 225.11-32.83 225.48-33.7 226.13-34.33 226.78-34.95 227.63-35.33 228.48-35.7 229.48-35.7L229.48-35.7Q230.43-35.7 231.31-35.33 232.18-34.95 232.81-34.33 233.43-33.7 233.81-32.83 234.18-31.95 234.18-31L234.18-31Q234.18-29.55 233.41-28.38 232.63-27.2 231.43-26.65L231.43-26.65 231.43-20.4 227.53-20.4ZM266.08-23.1L266.08-24.3Q266.08-26.4 264.45-27.95 262.83-29.5 259.88-29.5L259.88-29.5Q257.38-29.5 255.93-28.48 254.48-27.45 254.48-25.7L254.48-25.7Q254.48-24.8 254.83-24.08 255.18-23.35 256.06-22.78 256.93-22.2 258.36-21.75 259.78-21.3 261.98-20.9L261.98-20.9Q267.48-19.9 270.38-17.55 273.28-15.2 273.28-10.6L273.28-10.6 273.28-10Q273.28-7.55 272.4-5.58 271.53-3.6 269.88-2.2 268.23-0.8 265.88-0.05 263.53 0.7 260.58 0.7L260.58 0.7Q257.13 0.7 254.5-0.28 251.88-1.25 250.13-2.98 248.38-4.7 247.48-7.03 246.58-9.35 246.58-12.1L246.58-12.1 246.58-13.6 253.18-13.6 253.18-12.4Q253.18-9.25 255-7.38 256.83-5.5 260.68-5.5L260.68-5.5Q263.68-5.5 265.13-6.8 266.58-8.1 266.58-9.9L266.58-9.9Q266.58-10.75 266.28-11.53 265.98-12.3 265.23-12.93 264.48-13.55 263.18-14.05 261.88-14.55 259.88-14.9L259.88-14.9Q257.23-15.35 255.03-16.07 252.83-16.8 251.21-18 249.58-19.2 248.68-21 247.78-22.8 247.78-25.4L247.78-25.4 247.78-25.7Q247.78-27.85 248.66-29.68 249.53-31.5 251.1-32.85 252.68-34.2 254.91-34.95 257.13-35.7 259.88-35.7L259.88-35.7Q262.98-35.7 265.38-34.83 267.78-33.95 269.4-32.45 271.03-30.95 271.86-29 272.68-27.05 272.68-24.9L272.68-24.9 272.68-23.1 266.08-23.1Z" fill="#5a5a5a" data-fill-palette-color="primary"></path><path d="M275.98-28.7L275.98-35 301.18-35 301.18-28.7 291.88-28.7 291.88 0 285.28 0 285.28-28.7 275.98-28.7ZM326.83 0L325.13-7.5 313.23-7.5 311.53 0 304.63 0 312.98-35 325.38-35 333.73 0 326.83 0ZM318.73-31.7L314.63-13.8 323.68-13.8 319.63-31.7 318.73-31.7ZM355.78-23.1L355.78-24.3Q355.78-26.4 354.15-27.95 352.53-29.5 349.58-29.5L349.58-29.5Q347.08-29.5 345.63-28.48 344.18-27.45 344.18-25.7L344.18-25.7Q344.18-24.8 344.53-24.08 344.88-23.35 345.75-22.78 346.63-22.2 348.05-21.75 349.48-21.3 351.68-20.9L351.68-20.9Q357.18-19.9 360.08-17.55 362.98-15.2 362.98-10.6L362.98-10.6 362.98-10Q362.98-7.55 362.1-5.58 361.23-3.6 359.58-2.2 357.93-0.8 355.58-0.05 353.23 0.7 350.28 0.7L350.28 0.7Q346.83 0.7 344.2-0.28 341.58-1.25 339.83-2.98 338.08-4.7 337.18-7.03 336.28-9.35 336.28-12.1L336.28-12.1 336.28-13.6 342.88-13.6 342.88-12.4Q342.88-9.25 344.7-7.38 346.53-5.5 350.38-5.5L350.38-5.5Q353.38-5.5 354.83-6.8 356.28-8.1 356.28-9.9L356.28-9.9Q356.28-10.75 355.98-11.53 355.68-12.3 354.93-12.93 354.18-13.55 352.88-14.05 351.58-14.55 349.58-14.9L349.58-14.9Q346.93-15.35 344.73-16.07 342.53-16.8 340.9-18 339.28-19.2 338.38-21 337.48-22.8 337.48-25.4L337.48-25.4 337.48-25.7Q337.48-27.85 338.35-29.68 339.23-31.5 340.8-32.85 342.38-34.2 344.6-34.95 346.83-35.7 349.58-35.7L349.58-35.7Q352.68-35.7 355.08-34.83 357.48-33.95 359.1-32.45 360.73-30.95 361.55-29 362.38-27.05 362.38-24.9L362.38-24.9 362.38-23.1 355.78-23.1ZM367.77-28.7L367.77-35 392.97-35 392.97-28.7 383.67-28.7 383.67 0 377.07 0 377.07-28.7 367.77-28.7ZM399.77 0L399.77-35 421.87-35 421.87-28.7 406.37-28.7 406.37-20.7 421.27-20.7 421.27-14.4 406.37-14.4 406.37-6.3 422.47-6.3 422.47 0 399.77 0Z" fill="#dedede" data-fill-palette-color="secondary"></path></g></svg></g></svg></g></svg></g></svg></g></svg></g></svg><rect width="395.52" height="34.15236152295101" fill="none" stroke="none" visibility="hidden"></rect></g></svg></g></svg>